<mxfile host="app.diagrams.net" modified="2021-08-31T18:14:37.987Z" agent="5.0 (Windows NT 10.0; Win64; x64) AppleWebKit/537.36 (KHTML, like Gecko) Chrome/92.0.4515.159 Safari/537.36 Edg/92.0.902.84" etag="KaEXFDQsNxbbPgq_rrz3" version="15.0.3" type="gitlab">
  <diagram id="YeuDmkXr7R7Ag7I40kXl" name="Page-1">
    <mxGraphModel dx="1822" dy="786" grid="0" gridSize="10" guides="1" tooltips="1" connect="1" arrows="1" fold="1" page="0" pageScale="1" pageWidth="827" pageHeight="1169" math="0" shadow="0">
      <root>
        <mxCell id="0" />
        <mxCell id="1" parent="0" />
        <mxCell id="GoO_ESKPk8W86hhAUs1_-3" value="" style="edgeStyle=orthogonalEdgeStyle;rounded=0;orthogonalLoop=1;jettySize=auto;html=1;entryX=0.5;entryY=0;entryDx=0;entryDy=0;" edge="1" parent="1" source="GoO_ESKPk8W86hhAUs1_-1" target="GoO_ESKPk8W86hhAUs1_-4">
          <mxGeometry relative="1" as="geometry">
            <mxPoint x="-3" y="228" as="targetPoint" />
          </mxGeometry>
        </mxCell>
        <mxCell id="GoO_ESKPk8W86hhAUs1_-1" value="quick buy mysql issue&lt;br&gt;#580" style="ellipse;whiteSpace=wrap;html=1;" vertex="1" parent="1">
          <mxGeometry x="-93" y="32" width="188" height="108" as="geometry" />
        </mxCell>
        <mxCell id="GoO_ESKPk8W86hhAUs1_-4" value="New approach" style="swimlane;fontStyle=0;childLayout=stackLayout;horizontal=1;startSize=26;horizontalStack=0;resizeParent=1;resizeParentMax=0;resizeLast=0;collapsible=1;marginBottom=0;fillColor=#f8cecc;strokeColor=#b85450;" vertex="1" parent="1">
          <mxGeometry x="-92" y="195" width="186" height="78" as="geometry" />
        </mxCell>
        <mxCell id="GoO_ESKPk8W86hhAUs1_-5" value="Ditch columns and use JSON" style="text;strokeColor=#B20000;fillColor=#e51400;align=left;verticalAlign=top;spacingLeft=4;spacingRight=4;overflow=hidden;rotatable=0;points=[[0,0.5],[1,0.5]];portConstraint=eastwest;fontColor=#ffffff;" vertex="1" parent="GoO_ESKPk8W86hhAUs1_-4">
          <mxGeometry y="26" width="186" height="26" as="geometry" />
        </mxCell>
        <mxCell id="GoO_ESKPk8W86hhAUs1_-6" value="Update slots on player leave" style="text;strokeColor=#B20000;fillColor=#e51400;align=left;verticalAlign=top;spacingLeft=4;spacingRight=4;overflow=hidden;rotatable=0;points=[[0,0.5],[1,0.5]];portConstraint=eastwest;fontColor=#ffffff;" vertex="1" parent="GoO_ESKPk8W86hhAUs1_-4">
          <mxGeometry y="52" width="186" height="26" as="geometry" />
        </mxCell>
      </root>
    </mxGraphModel>
  </diagram>
</mxfile>
